<svg xmlns="http://www.w3.org/2000/svg" viewBox="0 0 1080 1080"><defs><style>.cls-1{fill:#3d3c3e;}</style></defs><title>bin-icon</title><g id="bin"><path class="cls-1" d="M462.2,506.378l-.217,143.382c-.016,10.043-.867,20.229,5.065,29.091A28.758,28.758,0,0,0,491.9,691.706c3.071-.048,6.141-.163,9.21-.244l85.853-2.278,36.628-.972c2.456-.065,4.925-.066,7.379-.2a29.31,29.31,0,0,0,27.466-22.7c1.645-7.1.851-15.177.851-22.393V515.354c0-6.326.1-12.661,0-18.987-.167-10.419-3.887-20.112-13.416-25.462-7.381-4.144-16.428-4.765-24.721-4.431-23.344.941-46.685,2.731-70.007,4.1l-43.634,2.552c-7.609.445-16.149,0-23.63,1.794A27.987,27.987,0,0,0,465.4,489.534c-2.672,5.389-3.016,10.975-3.193,16.844-.259,8.635,7.775,16.891,16.5,16.5a16.83,16.83,0,0,0,16.5-16.5c.025-.812.6-3.82.132-4.379.176.209-.624,2.157-.9,3.019l-1.127,1.233q1.669-1.623.252-.381c-1.358.46-2.447,1.548-3.865,1.293a3.791,3.791,0,0,0,.787-.046c2.938-.146,5.875-.344,8.812-.515l36.211-2.118,79.017-4.622c2.285-.134,4.573-.315,6.86-.4,1.8-.068,3.617-.069,5.415,0,.913.033,5.4,1,1.34-.013a33.593,33.593,0,0,0,3.271.859l-2.193-.9q1.662,1.026-.269-.375-1.788-1.5-.48-.279-2.6-3.661-1.313-1.574c-2.2-4.139-1.086-2.814-.688-1.219.724,2.907-.065-4.4-.214-1.308-.027.559.026,1.157.035,1.722s0,1.134,0,1.7q0,4.431,0,8.862V655.02a12.4,12.4,0,0,0,0,2.459,2.787,2.787,0,0,1,0,.548c0,.031,0,.062,0,.093q0,.821.328-1.574-.8,2.736.372-.13l-.644,1.135q2-2.4.1-.454c1.381-1.169,2.456-1.262,3.9-1.992,1.4-.707,1.165.016.719-.092a10.337,10.337,0,0,0-2.356.063l-27.51.73L514.845,658.1l-15.336.406c-2.49.067-5.521-.315-7.97.212-2.114.455,2.712,1.395,0,.122.214.1,3.967,2.779,2.667,1.409l-.439-.433q1.881,2.587.445.218l.723,1.494q-.631-2.778.034.309c0-.045,0-.09,0-.135.027-1.865,0-3.732.008-5.6l.221-145.514.006-4.211c.013-8.631-7.6-16.9-16.5-16.5C469.752,490.279,462.217,497.128,462.2,506.378Z"/><path class="cls-1" d="M524.16,472.788V452.726c0-2.754-.024-5.511,0-8.265.006-.626,0-1.254.018-1.879q.03-1.486.152-2.968-.549,3.421-.039.871c1.3-3.363-1.859,3.331-.238.587q-2.72,3.271-.916,1.48-3.319,2.457-1.1.99l-8.328,2.253,48.423-4.615,30.2-2.879c2.485-.237,4.984-.415,7.463-.711a11.936,11.936,0,0,1,1.9-.055c-.5.722-5.052-1.467-4.947-1.4a11.646,11.646,0,0,1-3.808-3.863c-1.942-3.407-1.081-2.979-.733-1.608.786,3.089-.035-3.6.021-.22.167,10.29.167,20.58.167,30.875,0,8.631,7.59,16.9,16.5,16.5,8.94-.4,16.5-7.25,16.5-16.5V442.822c0-10.058.806-21.117-5.676-29.506-9.308-12.048-24.309-8.309-37.213-7.079l-47.731,4.55-17.062,1.626c-1.235.118-2.474.216-3.707.353a23.234,23.234,0,0,0-15.382,7.645c-7.874,8.817-7.473,20.347-7.473,31.413v20.964c0,8.631,7.589,16.9,16.5,16.5,8.94-.4,16.5-7.25,16.5-16.5Z"/><path class="cls-1" d="M529.089,544.136v77.6c0,11.582,18,11.6,18,0v-77.6c0-11.582-18-11.6-18,0Z"/><path class="cls-1" d="M572.924,542.009v77.6c0,11.582,18,11.6,18,0v-77.6c0-11.582-18-11.6-18,0Z"/><path class="cls-1" d="M439.231,508.52l79.44-4.953,126.741-7.9,29.254-1.824c8.6-.536,16.916-7.2,16.5-16.5-.38-8.479-7.275-17.075-16.5-16.5l-79.441,4.953-126.74,7.9-29.254,1.824c-8.6.536-16.916,7.205-16.5,16.5.38,8.48,7.274,17.075,16.5,16.5Z"/></g></svg>