<svg xmlns="http://www.w3.org/2000/svg" viewBox="0 0 1080 1080"><defs><style>.cls-1{fill:#bfbfbf;}</style></defs><title>checkbox_gray-icon</title><g id="checkbox"><path class="cls-1" d="M548.184,422.792c-31.129,2.586-60.526,20.312-79.011,45.061-18.066,24.189-24.8,56.617-23.157,86.34s12.921,59.107,35.65,79.068c42.824,37.61,111.244,36.774,152.108-3.6,45.177-44.63,44.209-122.862,5.727-171.321-23.513-29.609-64.371-43-101.358-38.607-1.934.23-3.873.464-5.794.788-7.994,1.35-12.467,11.21-10.477,18.452,2.328,8.468,10.435,11.83,18.452,10.476,2.827-.477-5.014.542-1.939.255,1.823-.17,3.639-.367,5.468-.476a119.032,119.032,0,0,1,18.374.348c.865.083,1.728.19,2.593.277,3.185.317-3.126-.532-.546-.081,2.128.372,4.259.689,6.376,1.127a105.456,105.456,0,0,1,12.582,3.4q1.728.588,3.436,1.238c.554.211,3.97,1.661,1.659.64-2.178-.961,1.036.5,1.663.794q1.74.827,3.447,1.725,3.279,1.73,6.407,3.727,1.494.954,2.95,1.968c.561.391,1.108.8,1.67,1.194,2.264,1.575-1.5-1.38-.146-.129,4.049,3.749,8.163,7.188,11.768,11.412.793.928,2.678,3.367.936,1.036.956,1.28,1.9,2.569,2.8,3.89a99.009,99.009,0,0,1,5.212,8.575q2.227,4.113,4.091,8.415c-1.105-2.558.9,2.408,1.108,2.974q1.034,2.823,1.942,5.69a142.586,142.586,0,0,1,5.007,21.329c.469,3.01.1.833.029.2.1.926.209,1.85.3,2.777q.231,2.409.37,4.825.313,5.413.151,10.84c-.095,3.089-.332,6.163-.645,9.238-.047.467-.437,3.209-.138,1.24.277-1.824-.064.321-.11.573-.34,1.9-.664,3.794-1.07,5.681a132.532,132.532,0,0,1-5.524,17.97c-.766,2.08,1.109-2.129.058-.188-.386.715-.68,1.489-1.031,2.223q-.921,1.927-1.921,3.813-2.27,4.272-4.944,8.311c-.775,1.168-1.591,2.3-2.4,3.45-.345.489-.713.961-1.068,1.444,1.818-2.472.562-.719.131-.217-2.074,2.412-4.13,4.812-6.382,7.065q-2.937,2.94-6.131,5.611c-.608.508-1.232,1-1.842,1.5,2.367-1.959.755-.57.2-.183-1.3.907-2.586,1.842-3.916,2.714q-3.756,2.46-7.741,4.544-1.871.98-3.782,1.872c-.732.341-1.47.67-2.209,1,1.9-.833,1.063-.427-.365.094a110.451,110.451,0,0,1-18.011,4.891c-.466.086-3.153.5-1.173.211,1.845-.269-.3.031-.565.057-1.736.17-3.467.339-5.208.442q-5.016.3-10.044.118c-2.811-.1-5.6-.341-8.393-.625-2.732-.278,2.985.534-.5-.1-1.5-.273-3-.531-4.492-.85a97.813,97.813,0,0,1-14.825-4.423c-.65-.252-1.291-.524-1.941-.776.037.014,2.668,1.239,1.174.479-1.248-.636-2.554-1.17-3.809-1.8q-3.562-1.774-6.965-3.849c-2.3-1.4-4.423-3.036-6.678-4.488-1.734-1.116,2.006,1.745.458.371-.4-.359-.85-.68-1.267-1.025q-1.9-1.566-3.7-3.235-2.849-2.628-5.457-5.5-1.318-1.453-2.575-2.964c-.482-.58-.949-1.171-1.421-1.759,2.146,2.667.375.461-.051-.159a121.637,121.637,0,0,1-9.075-15.9c1.281,2.631-.2-.52-.6-1.582q-.78-2.076-1.465-4.185a103.885,103.885,0,0,1-2.721-10.14q-.5-2.334-.9-4.689c-.07-.41-.53-3.275-.259-1.453.25,1.68-.079-.643-.1-.81-.425-3.9-.7-7.819-.787-11.747s0-7.843.243-11.757q.174-2.869.453-5.732c.1-.988.762-5.894.355-3.284a130.851,130.851,0,0,1,4.662-20.161q.664-2.053,1.406-4.079c.267-.727,1.669-4.268,1-2.656-.714,1.717,1.132-2.458,1.378-2.969q.972-2.026,2.038-4.006,1.921-3.569,4.134-6.969,1-1.529,2.056-3.016c.395-.557.826-1.093,1.206-1.659,1.088-1.623-2.364,2.745-.184.242a120.238,120.238,0,0,1,9.853-10.437c1.453-1.317,3.088-3.136,4.819-4.075-3.749,2.034-.545.436.449-.278q1.383-.991,2.8-1.934a100.138,100.138,0,0,1,10.4-6.04c1.654-.833,3.338-1.592,5.021-2.362,3.024-1.383-2.879,1.108-.665.284.947-.353,1.88-.742,2.827-1.094q4.236-1.569,8.595-2.777c3.866-1.07,7.758-1.708,11.683-2.466-.462.089-5.12.631-2.648.371.154-.017.309-.033.464-.046,7.8-.648,15.384-6.435,15-15-.339-7.571-6.626-15.7-15-15Z"/></g></svg>