<svg xmlns="http://www.w3.org/2000/svg" viewBox="0 0 1080 1080"><defs><style>.cls-1{fill:#3d3c3e;}</style></defs><title>icon</title><g id="Layer_22" data-name="Layer 22"><path class="cls-1" d="M613.139,512.505l-.1,59.689c-.008,4.417.9,8.7,5.245,10.958,3.028,1.576,6.828,1.032,10.121.954l36.821-.868,15.584-.368c4.33-.1,8.393-.385,11.146-4.408,2.057-3.007,1.68-6.64,1.68-10.092V515.7c0-3.1.368-6.5-.946-9.385-2.164-4.753-6.75-5.68-11.395-5.519l-38.9,1.347-17.178.594c-6.434.223-11.149,2.718-12.077,9.765-.755,5.724,8.252,5.669,9,0,.249-1.9,20.236-1.359,22.153-1.425l32.673-1.131c1.459-.051,5.385-.94,6.733-.233,1.754.919.939,4.291.939,5.987V563.86c0,2.363.835,6.5,0,8.744-.639,1.719-2,1.223-3.826,1.266l-13.3.314-34.281.809c-2.863.067-6.766.864-9.579.226-1.99-.452-1.617-1.3-1.614-3.238l.1-59.476C622.148,506.713,613.148,506.7,613.139,512.505Z"/><path class="cls-1" d="M397.731,512.505l-.1,59.689c-.007,4.417.9,8.7,5.245,10.958,3.028,1.576,6.829,1.032,10.121.954l36.822-.868,15.584-.368c4.329-.1,8.392-.385,11.145-4.408,2.057-3.007,1.681-6.64,1.681-10.092V515.7c0-3.1.367-6.5-.947-9.385-2.164-4.753-6.75-5.68-11.394-5.519l-38.9,1.347-17.178.594c-6.434.223-11.148,2.718-12.077,9.765-.755,5.724,8.253,5.669,9,0,.25-1.9,20.236-1.359,22.154-1.425l32.672-1.131c1.46-.051,5.385-.94,6.734-.233,1.754.919.939,4.291.939,5.987V563.86c0,2.363.835,6.5,0,8.744-.64,1.719-2,1.223-3.826,1.266l-13.3.314-34.281.809c-2.863.067-6.765.864-9.578.226-1.991-.452-1.618-1.3-1.615-3.238l.1-59.476C406.741,506.713,397.741,506.7,397.731,512.505Z"/><path class="cls-1" d="M404.056,397.576l63.262-2.491c5.773-.227,5.8-9.228,0-9l-63.262,2.491c-5.772.227-5.8,9.228,0,9Z"/><path class="cls-1" d="M433.429,391.628v70.4c0,5.791,9,5.8,9,0v-70.4c0-5.791-9-5.8-9,0Z"/><path class="cls-1" d="M542.961,384.843a39.818,39.818,0,0,0-28.126,16.318c-12.187,16.965-11.021,45.126,5.507,58.883,15.171,12.627,38.824,12,52.951-1.992,15.494-15.342,15.775-42.507,2.865-59.554-8.831-11.661-24.4-16.868-38.678-14.508-5.7.943-3.282,9.617,2.393,8.679-1.063.175.192-.041,1.307-.1a44.68,44.68,0,0,1,6.421.073,31.766,31.766,0,0,1,15.772,5.663c14.125,10.258,16.837,33.451,7.978,47.825-8.608,13.966-27.664,18.017-41.588,9.651-15.523-9.328-17.647-32.119-9.165-46.97a30.177,30.177,0,0,1,14.464-12.726,34.406,34.406,0,0,1,6.049-1.891c.7-.154,1.4-.272,2.1-.394-1.441.249-.615.074-.253.043,5.726-.5,5.779-9.5,0-9Z"/><path class="cls-1" d="M650.167,616.267a39.818,39.818,0,0,0-28.126,16.319c-12.187,16.965-11.021,45.125,5.507,58.882,15.171,12.628,38.823,12,52.95-1.992,15.5-15.342,15.776-42.506,2.866-59.553-8.832-11.661-24.4-16.869-38.678-14.509-5.7.943-3.283,9.617,2.392,8.679-1.063.176.193-.041,1.308-.1a44.811,44.811,0,0,1,6.42.073,31.766,31.766,0,0,1,15.773,5.663c14.125,10.259,16.837,33.451,7.978,47.825-8.608,13.966-27.665,18.018-41.588,9.651-15.523-9.327-17.648-32.119-9.165-46.97a30.17,30.17,0,0,1,14.464-12.725,34.29,34.29,0,0,1,6.048-1.892c.7-.153,1.4-.272,2.1-.394-1.442.25-.616.075-.253.043,5.726-.5,5.779-9.5,0-9Z"/><path class="cls-1" d="M512.656,619.95v76.031a4.6,4.6,0,0,0,4.5,4.5c18.887,1.117,42.447-3.424,55.555-18.031,10.3-11.474,13.395-29.855,7.049-44.008-5.775-12.879-19.347-19.3-32.55-21.8a99.258,99.258,0,0,0-30.054-1.192c-5.677.689-5.746,9.7,0,9,16.386-1.989,40.776-1.093,51.75,13.168,7.9,10.269,6.323,27.281-1.457,37.178-7.054,8.974-18.6,13.1-29.442,15.174a85.328,85.328,0,0,1-20.851,1.511l4.5,4.5V619.95C521.656,614.159,512.656,614.149,512.656,619.95Z"/><path class="cls-1" d="M539.663,412.563v.664a1.5,1.5,0,0,0,3,0v-.664a1.5,1.5,0,0,0-3,0Z"/><path class="cls-1" d="M550.117,412.563v.664a1.5,1.5,0,0,0,3,0v-.664a1.5,1.5,0,0,0-3,0Z"/><path class="cls-1" d="M536.974,417.939c4.112,6.042,15.249,5.276,19.153-.5,1.084-1.6-1.514-3.106-2.59-1.514-2.72,4.023-11.388,4.295-13.973.5-1.08-1.586-3.68-.087-2.59,1.514Z"/><path class="cls-1" d="M645.224,651.029V652.1a1.5,1.5,0,0,0,3,0v-1.067a1.5,1.5,0,0,0-3,0Z"/><path class="cls-1" d="M656.945,651.029V652.1a1.5,1.5,0,0,0,3,0v-1.067a1.5,1.5,0,0,0-3,0Z"/><path class="cls-1" d="M654.564,663.3a3.8,3.8,0,0,1-3.45-1.2,3.5,3.5,0,0,1,.874-5.481c.06-.03.121-.058.182-.084a5.093,5.093,0,0,1,4.1.2,3.24,3.24,0,0,1,1.337,4.4A3.828,3.828,0,0,1,654.564,663.3Z"/><path class="cls-1" d="M613.869,406.272c-.034,17.389-1.034,35.045-.1,52.4.588,10.968,10.835,9.891,18.7,9.706l34.873-.823,13.953-.329c3.319-.079,6.489.013,9.292-2.17,5.959-4.642,3.784-16.7,3.784-23.273V406.272c0-7.622,1.945-19.852-8.7-21.114-3.015-.358-6.218.05-9.238.135l-18.974.528-28.979.807c-5.779.161-5.8,9.162,0,9l51.243-1.427c1.342-.038,4.713-.842,5.645.571.668,1.014,0,4.737,0,5.88V446.33c0,3.166.451,6.73,0,9.872-.259,1.8-.282,1.77-2.147,1.982-3.351.381-6.895.163-10.263.242l-32.252.761-12.982.307c-1.381.032-4.057.715-4.958-.659-1.044-1.593.014-7.271.018-9.116l.035-17.634.05-25.813c.011-5.791-8.989-5.8-9,0Z"/><path class="cls-1" d="M507.57,521.194c-.034,17.389-1.034,35.045-.1,52.4.589,10.969,10.836,9.892,18.7,9.707l34.872-.823,13.954-.329c3.319-.079,6.489.013,9.292-2.17,5.959-4.642,3.783-16.7,3.783-23.273V521.194c0-7.623,1.945-19.852-8.7-21.114-3.016-.358-6.218.05-9.238.134l-18.974.529-28.979.807c-5.78.161-5.8,9.162,0,9l51.243-1.427c1.342-.038,4.713-.842,5.644.571.669,1.014,0,4.737,0,5.88v45.678c0,3.166.452,6.73,0,9.872-.258,1.8-.282,1.77-2.147,1.982-3.35.381-6.894.163-10.262.242l-32.252.761-12.982.307c-1.382.032-4.057.715-4.958-.659-1.044-1.593.014-7.272.018-9.117l.034-17.633.051-25.813c.011-5.791-8.989-5.8-9,0Z"/><path class="cls-1" d="M397.731,642.78c-.034,17.388-1.034,35.044-.1,52.4.588,10.968,10.835,9.892,18.7,9.706l34.873-.822,13.953-.33c3.319-.078,6.489.014,9.292-2.169,5.959-4.642,3.784-16.7,3.784-23.274V642.779c0-7.622,1.944-19.852-8.7-21.113-3.015-.358-6.218.05-9.238.134l-18.974.529-28.979.807c-5.779.161-5.8,9.161,0,9l51.243-1.428c1.342-.037,4.713-.842,5.645.572.668,1.013,0,4.737,0,5.88v45.677c0,3.167.451,6.73,0,9.873-.259,1.8-.283,1.77-2.147,1.982-3.351.381-6.9.163-10.263.242l-32.252.761L411.586,696c-1.381.033-4.057.716-4.958-.658-1.044-1.594.014-7.272.018-9.117l.035-17.633.05-25.813c.011-5.792-8.989-5.8-9,0Z"/><path class="cls-1" d="M424.005,542.443l8.592,12.18a4.568,4.568,0,0,0,7.771,0l13.83-20.651c3.231-4.826-4.561-9.336-7.772-4.543L432.6,550.081h7.771L431.776,537.9c-3.313-4.7-11.12-.2-7.771,4.543Z"/><path class="cls-1" d="M638.24,542.443l8.592,12.18a4.568,4.568,0,0,0,7.771,0l13.83-20.651c3.232-4.826-4.561-9.336-7.771-4.543l-13.83,20.652H654.6L646.011,537.9c-3.312-4.7-11.12-.2-7.771,4.543Z"/><path class="cls-1" d="M639.24,426.724l8.592,12.181a4.569,4.569,0,0,0,7.771,0l13.83-20.652c3.232-4.826-4.561-9.336-7.771-4.542l-13.83,20.651H655.6l-8.592-12.181c-3.312-4.7-11.12-.2-7.771,4.543Z"/><path class="cls-1" d="M423.832,662.753l8.592,12.18a4.569,4.569,0,0,0,7.772,0l13.829-20.651c3.232-4.826-4.561-9.337-7.771-4.543l-13.83,20.652H440.2L431.6,658.21c-3.313-4.7-11.12-.205-7.772,4.543Z"/><path class="cls-1" d="M533.79,546.7l29.521-1.449c5.765-.282,5.8-9.284,0-9L533.79,537.7c-5.765.283-5.8,9.284,0,9Z"/></g></svg>