<svg xmlns="http://www.w3.org/2000/svg" viewBox="0 0 1080 1080"><defs><style>.cls-1{fill:#3d3c3e;}</style></defs><title>modify-icon</title><g id="modify"><path class="cls-1" d="M539.58,435.977l-48.959,1.29c-5.8.153-11.695.029-17.479.566-11.911,1.1-20.675,7.331-22.58,19.673-2.326,15.072-1.1,31.262-1.13,46.541l-.121,61.925-.048,24.4c-.012,6.445-.383,12.759,2.824,18.7,8.518,15.781,28.35,12.024,43.172,11.674l108.673-2.564c10.97-.259,21.128-5.049,24.821-16.214,1.992-6.023,1.158-13.4,1.158-19.647V521.172c0-15.442-24-15.468-24,0v68.686a43.711,43.711,0,0,1,0,4.843c-.032.285.317-1.023.368-.763.352,1.8-1.639.494.006.27,1.2-.163.528.089.264-.083-.669-.437-3.267.077-4.049.1l-8.091.19-23.967.566-60.016,1.416c-12.27.29-24.6.977-36.878.87-.182,0-.365.009-.548.013.939-.025-1.206-.747-.012.171.617.475.831.355.142.072-.727-.3.038-.749.118.4-.06-.861,0-1.748,0-2.61l.035-17.876q.093-47.305.185-94.612c.012-6.126-.108-12.285.305-18.4.043-.649.128-1.3.154-1.948.069-1.771-.443,2.195-.107.6.179-.854.366-1.713.536-2.568.56-2.81-.682,1.015-.069-.012.893-1.5-2.174,2.073-.208.356-2.375,2.074-1.936,1.453-1.131.968,1.176-.708.06.687-1.321.518a6.348,6.348,0,0,0,2.152-.566c1.111-.744-2.541.115-1.028.114.534,0,1.081-.1,1.616-.136.768-.052,1.538-.077,2.307-.1,1.848-.065,3.7-.1,5.545-.146l52.869-1.393,4.487-.118c15.414-.406,15.475-24.408,0-24Z"/><path class="cls-1" d="M535.564,479.061,517.082,538.8c-2.248,7.267,5.378,15.649,12.917,12.917l41.3-14.975c5-1.811,10.049-3.515,15-5.439,3.907-1.518,6.02-4.144,8.8-7.061l70.1-73.676,26.314-27.657c5.809-6.1,9.353-13.848,6.835-22.444s-11.624-14.717-17.94-20.481c-2.179-1.99-4.312-4.05-6.548-5.977-6.754-5.82-15.853-7.645-24.023-3.566-3.684,1.839-6.656,5.043-9.634,7.852l-31.748,29.94c-22.911,21.606-46.228,42.855-68.766,64.849-.467.456-.95.9-1.424,1.344-9.853,9.292,5.017,24.122,14.849,14.849l101.938-96.133c1.12-1.056,2.673-3.271,4.1-3.869.212-.089-.812-.388.155-.144,2.007.507,5.09,4.646,6.6,6.021l7.679,7.008c1.077.984,3.795,2.645,4.427,3.921.1.2.434-.478.328.219-.08.528-1.528,1.607-1.885,1.982l-51.532,54.161-48.814,51.305,4.633-2.7-56.326,20.422,12.916,12.916,18.482-59.741C559.818,471.7,539.553,466.17,535.564,479.061Z"/><path class="cls-1" d="M539.325,488.217l37.845,39.319c8.048,8.362,20.766-4.375,12.728-12.728l-37.845-39.319c-8.048-8.362-20.766,4.375-12.728,12.728Z"/></g></svg>