<svg 
  xmlns="http://www.w3.org/2000/svg" 
  viewBox="0 0 1080 1080"
  fill="#eae9e4" 
  >
  <path class="cls-1" d="M815.038,333.273c-7.5-26.339-34.675-45.165-53.514-62.856-6.5-6.1-12.864-12.429-19.533-18.342-20.147-17.862-47.289-23.462-71.661-10.945-10.988,5.643-19.852,15.478-28.738,24.1l-94.7,91.883C478.551,423.418,409,488.63,341.767,556.131c-1.392,1.4-2.833,2.749-4.249,4.123-6.088,5.906-8.974,12.541-9.522,19.1L274.332,757.814c-6.706,22.3,16.042,48.027,38.528,39.639l123.2-45.955c14.9-5.559,29.974-10.787,44.753-16.693,11.654-4.657,17.957-12.716,26.238-21.67l209.1-226.106,78.494-84.876C811.976,383.418,822.549,359.653,815.038,333.273ZM375.408,639.69l45.824,48.984-68.2,25.44Q364.219,676.9,375.408,639.69ZM755.356,351.174c-.239,1.619-4.559,4.93-5.626,6.084L596.014,523.474,469.338,660.451,400.905,587.3,685.887,310.8c3.342-3.243,7.973-10.041,12.241-11.876.631-.272-2.425-1.19.461-.44,5.986,1.555,15.184,14.259,19.676,18.477l22.9,21.509c3.214,3.018,11.321,8.116,13.205,12.033C754.671,351.117,755.671,349.035,755.356,351.174Z"/>
</svg>