<svg 
  xmlns="http://www.w3.org/2000/svg" 
  viewBox="0 0 1080 1080"
  fill="#fff"
  >
  <path class="cls-1" d="M823.016,484.337c5.1-2.813,7.671-4.1,10.111-5.6,34.349-21.1,76.334-14.958,99.917,14.646,24.424,30.66,21.527,72.451-7.485,101.823-30.612,30.992-61.9,61.327-92.014,92.791a39.426,39.426,0,0,0-10.017,23.767c-1.168,31.739-.289,63.548-.61,95.326-.671,66.4-49.651,115.455-116.183,115.623q-188.38.477-376.764.033c-66.766-.154-116.108-50.273-116.145-117.376q-.147-262.966,0-525.933c.04-67.6,48.1-117.448,115.6-117.836q188.376-1.084,376.763-.028c68.819.348,116.486,49.312,116.752,118.147.237,61.512.067,123.025.077,184.538C823.017,470.187,823.016,476.113,823.016,484.337ZM744.51,778.048c-4.108,3.5-7.571,5.6-9.9,8.584-10.766,13.787-24.578,18.157-41.856,16.93-18.362-1.3-36.889-.145-55.342-.34-18.3-.193-24.993-6.732-25.256-25.085-.3-21.014.405-42.051-.292-63.046-.409-12.31,3.927-21.376,12.573-29.882,37.267-36.664,73.885-73.99,111.281-110.521,8.074-7.888,10.941-15.933,10.891-27.008-.4-87.657-.219-175.316-.243-262.975-.009-34.377-12.806-47.206-47.337-47.22q-179.931-.071-359.862-.019c-36.12.007-49.28,13.035-49.286,48.89q-.04,255.287.018,510.574c.011,37.324,12.58,49.773,49.881,49.773,115.341,0,230.7-1.163,346.014.476,55.632.79,64.081-18.367,60.115-65.1A34.691,34.691,0,0,0,744.51,778.048Zm-93.561-13.82c11.341,0,20.561-.807,29.584.182,15.042,1.648,25.756-3.906,36.17-14.789,30.412-31.783,61.8-62.635,93.024-93.635,18.828-18.7,38.057-36.988,54.893-53.316l-49.7-50.815c.258-.12-.862.09-1.53.754Q734.462,631.041,655.73,709.671a17.459,17.459,0,0,0-4.569,10.711C650.629,734.094,650.949,747.838,650.949,764.228Zm244.142-194.84c18.383-16.6,20.279-39.307,5.133-54.076-16.3-15.893-38.782-13.612-53.683,5.067Z"/><path class="cls-1" d="M517.888,541.781c-36.4,0-72.8.122-109.2-.035C383.1,541.636,366.012,526,366.385,503.5c.369-22.2,16.914-37.306,41.943-37.374q109.962-.3,219.926-.046c25.565.065,42.672,16.038,42.419,38.6-.245,21.933-17.1,36.953-42.053,37.051C591.71,541.883,554.8,541.776,517.888,541.781Z"/><path class="cls-1" d="M518.493,389.755c-36.4-.021-72.8.249-109.191-.112-26.425-.261-42.793-15.093-42.948-37.839-.152-22.307,17.051-38.071,42.877-38.153q109.193-.346,218.387.011c25.917.092,43.162,15.881,43,38.087-.167,22.733-16.676,37.7-42.931,37.945C591.291,390.026,554.891,389.777,518.493,389.755Z"/><path class="cls-1" d="M481.209,694.466c-24.6-.007-49.214.313-73.811-.1-24.907-.415-41.2-16.041-40.9-38.324.309-22.6,16.225-37.537,41.52-37.709q72.271-.489,144.549,0c25.22.173,41.51,15.344,41.719,37.59.215,22.957-16.2,38.129-42.342,38.48C528.37,694.724,504.788,694.474,481.209,694.466Z"/>
</svg>