<svg 
  xmlns="http://www.w3.org/2000/svg" 
  viewBox="0 0 1080 1080"
  fill="#eae9e4"
  >
  
  <path class="cls-1" d="M176.312,467.138H812.089c29.2,0,59.295,2.489,88.44,0,.413-.035.839,0,1.254,0,11.74,0,11.76-21.414,0-21.414H266.006c-29.2,0-59.294-2.488-88.439,0-.413.036-.84,0-1.255,0-11.74,0-11.759,21.414,0,21.414Z"/><path class="cls-1" d="M176.312,482.138H661.144c53.481,0,107.022-.737,160.5.079,26.055.4,51.895,1.379,77.937,0,11.938-.633,21.394-5.891,24.96-17.968,2.732-9.253.269-20.374-6.737-27.121-9.476-9.125-24.573-6.4-36.552-6.4H275.937c-26.093,0-52.2-1.552-78.285-1.013-6.074.125-12.121.484-18.183.858-6.957.43-13.146,1.148-18.55,6.056-7.282,6.613-9.954,17.336-7.569,26.8a24.242,24.242,0,0,0,22.962,18.717c7.849.39,15.35-7.178,15-15a15.33,15.33,0,0,0-15-15c4.491.223.233-.549,2.4.558.644.329,3.864,3.095,2.226,1.265,2.476,2.766,1.455,2.036.956,1.054,1.814,3.567.714,2.063.483.844.9,4.73-.7-.264.177-.727-.1.053-.609,3.633-.071,1.457q.757-2.256-.584,1.259.944-1.509-.272.174c-1.485,1.972,2.131-.622-1.865,1.722-.245.144-3.617,1.178-1.267.626-3.733.877-2.2.291-.932.354a41.977,41.977,0,0,0,4.76-.361c6.383-.43,12.777-.64,19.173-.714,24.812-.283,49.621,1.075,74.437,1.075H892.005c1.814,0,8.287-.936,9.778,0-1.445-.907-2.982-.674-1.359-.136-.51-.169-4.206-2.633-3.554-1.967,1.317,1.346-1.979-3.323-.672-.773-.868-1.693-.649-2.773-.381-.431-.088-.769.327-3.313-.228-1.42-.123.422,0,3.445.087.591.077-2.519-.058-.214-.325.49.093-.246,1.694-3.311.43-1.358a7.759,7.759,0,0,1,4.228-3.336c-1.938.545,4.541-.223.52-.246-1.865-.01-3.851.306-5.714.426-24.373,1.561-48.791.025-73.175-.347-50.828-.776-101.718-.079-152.551-.079H176.312c-7.846,0-15.363,6.9-15,15C161.676,475.265,167.9,482.138,176.312,482.138Z"/><path class="cls-1" d="M488.34,563.324h13.927c7.21,0,7.222-11.1,0-11.1H488.34c-7.211,0-7.222,11.1,0,11.1Z"/><path class="cls-1" d="M488.34,569.324h8.57c2.658,0,5.467.26,8.087-.314a11.139,11.139,0,0,0,8.049-7.388c2.591-7.724-2.922-14.979-10.779-15.4a99.246,99.246,0,0,0-15.062.1,11.056,11.056,0,0,0-9.039,6.169,11.647,11.647,0,0,0,10.174,16.832c7.722.332,7.706-11.668,0-12-.974-.042-.234-.185.189.116.783.556-.749-.564.07.06q.528.428-.077-.153l.4.473c-.376-.11-.171-.645.054.178q-.187-.839-.076-.1.06.629.032.111c-.779-.033,1.353-1.649-.072-.011.365-.419.106-.394-.153.136.492-1.006-.337.541-.027-.1.142-.292-.813.245.1-.047a2.926,2.926,0,0,1-1.025.262c1.444-.01,2.889-.025,4.334-.025,3.3,0,6.911.431,10.177,0,1.069-.141.061.155.06,0l-.5-.241q.741.459.178.06c-.8-.608.579.674-.124-.083-.35-.376.016.591-.256-.415.2.723.133.191.036-.237a4.858,4.858,0,0,1,.008.693q-.029.518.031-.111.1-.621-.018-.118-.189.636.212-.359c-.173.574-.172.363.186-.07-.593.717.34.071-.047.093-.654.038.771-.151.816-.142a24.233,24.233,0,0,0-4.334.026H488.34C480.619,557.324,480.606,569.324,488.34,569.324Z"/><path class="cls-1" d="M559.527,563.324h13.927c7.21,0,7.222-11.1,0-11.1H559.527c-7.211,0-7.223,11.1,0,11.1Z"/><path class="cls-1" d="M559.527,569.324h8.57c2.658,0,5.467.26,8.087-.314a11.139,11.139,0,0,0,8.049-7.388c2.591-7.724-2.922-14.979-10.779-15.4a99.245,99.245,0,0,0-15.062.1,11.059,11.059,0,0,0-9.04,6.169,11.648,11.648,0,0,0,10.175,16.832c7.721.332,7.706-11.668,0-12-.974-.042-.235-.185.189.116.783.556-.749-.564.07.06q.528.428-.077-.153l.4.473c-.375-.11-.17-.645.055.178q-.187-.839-.077-.1c.041.419.051.456.033.111-.779-.033,1.353-1.649-.072-.011.365-.419.106-.394-.153.136.492-1.006-.337.541-.027-.1.142-.292-.813.245.1-.047a2.931,2.931,0,0,1-1.025.262c1.444-.01,2.889-.025,4.333-.025,3.3,0,6.912.431,10.178,0,1.069-.141.061.155.059,0l-.5-.241q.741.459.178.06c-.8-.608.579.674-.124-.083-.35-.376.016.591-.256-.415.2.723.132.191.036-.237a4.858,4.858,0,0,1,.008.693q-.028.518.031-.111.1-.621-.018-.118-.189.636.211-.359c-.172.574-.171.363.187-.07-.593.717.34.071-.047.093-.654.038.771-.151.816-.142a24.233,24.233,0,0,0-4.334.026H559.527C551.806,557.324,551.793,569.324,559.527,569.324Z"/><path class="cls-1" d="M528.994,590.388h5.663a5.55,5.55,0,1,0,0-11.1h-5.663a5.55,5.55,0,1,0,0,11.1Z"/><path class="cls-1" d="M528.994,596.388c3.485,0,7.17.394,10.412-1.108a11.707,11.707,0,0,0,6.492-7.54c1.982-7.414-4.019-14.072-11.241-14.451-6.8-.357-14.486.651-16.8,8.226-2.344,7.667,3.8,14.279,11.139,14.873,7.7.624,7.657-11.38,0-12,.54.044.37.165.326.2-.326.25.234.833.07.555q.4-.156-.4.147h2.265c.781,0,2.848.387,3.4,0-.548.386-.378-.941-.291-.794q-.562.216.291-.107h-1.133a42.782,42.782,0,0,0-4.53,0C521.273,584.388,521.26,596.388,528.994,596.388Z"/><path class="cls-1" d="M213.845,541.721l-8.168,6.395c-2.1,1.643-3.283,5.332-3.283,7.849a11.155,11.155,0,0,0,11.207,11.1,13.1,13.1,0,0,0,7.924-3.251l8.168-6.395c2.1-1.643,3.283-5.332,3.283-7.848a11.155,11.155,0,0,0-11.207-11.1,13.1,13.1,0,0,0-7.924,3.251Z"/><path class="cls-1" d="M203.239,531.114c-5.975,4.677-11.493,8.573-14.2,16a26.229,26.229,0,0,0,1.271,20.663c7.691,15.665,27.329,17.776,40.3,7.815,5.2-3.991,11.056-7.663,14.205-13.591a26.271,26.271,0,0,0,1-22.454c-6.444-15.509-26.066-20.7-39.541-10.779-6.513,4.8-9.779,13-5.382,20.523,3.758,6.424,13.963,10.212,20.523,5.381a15.135,15.135,0,0,1,1.835-1.285q1.179-.663.1-.18c-.653-.184-1.809.365-2.666.078-1.825-.609-2.432-1.959-2.712-3.716-.212-1.323.71-2.111-.1-.36a4.355,4.355,0,0,1,.818-1.8q.9-1.183-.292-.067c-1.7.642-5.183,4.018-5.9,4.606q.629-.5-.386.195-1.412.808.406-.023a13.248,13.248,0,0,1,2.157.125c1.868.624,2.312,1.951,2.712,3.717l-.252,1.618q.653-2.179.133-.66c-.7,1.3-2.091,2.4.37.734,2.369-1.6,4.555-3.567,6.807-5.33,6.384-5,5.24-15.973,0-21.213C218.149,524.811,209.64,526.1,203.239,531.114Z"/><path class="cls-1" d="M376.7,721.626l-2.077,5.625c-.951,2.574-.224,6.263,1.129,8.553a11.264,11.264,0,0,0,15.332,3.982,12.5,12.5,0,0,0,5.15-6.634l2.078-5.624c.951-2.574.224-6.263-1.129-8.553a11.266,11.266,0,0,0-15.333-3.982,12.511,12.511,0,0,0-5.15,6.633Z"/><path class="cls-1" d="M362.237,717.639c-2.58,6.984-4.11,13.585-1.567,20.9a26.292,26.292,0,0,0,36.662,14.889c6.744-3.481,10.668-9.423,13.368-16.29,2.6-6.622,4.053-13.186,1.81-20.2a26.183,26.183,0,0,0-36.9-15.6c-6.883,3.624-10.475,9.339-13.368,16.291-3.024,7.266,3.259,16.807,10.477,18.451,8.758,2,15.213-2.694,18.452-10.476-1.04,2.5-4.016,4.08-6.336,1.756-.852-.853-.506-1.969-1.086-2.7q.394-2.664-.588.74l-1.385,3.75c1.048-.866.817-2.187,2.594-2.687a3.607,3.607,0,0,1,3.035.4c1.459.909.992,2.219,1.793,3.229q-.394,2.666.587-.739l1.386-3.75c2.724-7.373-3.04-16.758-10.477-18.452C372.2,705.228,365.154,709.744,362.237,717.639Z"/><path class="cls-1" d="M719.855,694.7l5.329,7.133c1.8,2.4,3.676,4.277,6.7,5.1a11.553,11.553,0,0,0,8.635-1.119,11.216,11.216,0,0,0,5.15-6.634c.628-2.729.629-6.2-1.129-8.553l-5.33-7.133c-1.8-2.4-3.676-4.277-6.7-5.1a11.554,11.554,0,0,0-8.635,1.119,11.22,11.22,0,0,0-5.15,6.634c-.628,2.73-.629,6.2,1.13,8.553Z"/><path class="cls-1" d="M706.9,702.272c4.135,5.534,7.837,11.669,13.6,15.657a26.309,26.309,0,0,0,22.011,3.246c15.762-4.491,23.487-24.134,14.975-38.117-7.465-12.262-19.339-23.54-34.9-19.136-16.2,4.585-24.24,23.728-15.685,38.35a15,15,0,0,0,25.9-15.142,3.909,3.909,0,0,1-3.742,5.811c-.717-.081-1.259-.628-1.887-.742-1.179-.214.6.905.328.522-.36-.507,1.177,1.6,1.414,1.913.294.393,2.741,3.466,2.665,3.566.3-.391-.584-2.91.037-3.95a3.868,3.868,0,0,1,3.161-1.942c.739-.022,1.309.435,1.989.52q1.534,1.2.4.081-.8-.91-.291-.3c-.551-.852-2.9-3.9-4.079-5.479-4.842-6.479-12.972-9.8-20.523-5.381C705.9,685.485,702.025,695.744,706.9,702.272Z"/><path class="cls-1" d="M867.466,547.815l5.885,2.4c2.5,1.02,6.417.166,8.635-1.119a11.327,11.327,0,0,0,5.15-6.634,11.142,11.142,0,0,0-1.13-8.553l-1.752-2.246a11.21,11.21,0,0,0-4.945-2.855l-5.884-2.4c-2.5-1.02-6.417-.167-8.636,1.119a11.33,11.33,0,0,0-5.149,6.634,11.142,11.142,0,0,0,1.129,8.553l1.752,2.246a11.23,11.23,0,0,0,4.945,2.855Z"/><path class="cls-1" d="M863.479,562.279c6.325,2.584,12.037,4.211,18.951,2.586a26.728,26.728,0,0,0,16.9-12.872,26.011,26.011,0,0,0,1.086-22.547c-3.353-7.872-9.456-12.047-17.117-15.1-6.348-2.529-11.994-4.315-18.952-2.587a26.618,26.618,0,0,0-16.568,12.232c-8.726,15.287-.084,32.84,15.7,38.286,7.425,2.562,16.731-2.923,18.452-10.477,1.9-8.348-2.527-15.708-10.477-18.451.358.123,1.571.572,1.674,1l-.876-1.124,1.814,2.789c.451,1.772-.205,2.9-1.3,4.153-.263.3-2.743,1.256-1.091.687,1.808-.621-1.381.028-1.449.057-1.158.495.262.384,1.422.858,1.224.5,2.466.974,3.678,1.5-.477-.208-1.413-.5-1.674-1,1.537,2.986-.778-1.037-.938-1.665a4.1,4.1,0,0,1,.9-3.846c.608-.647,1.435-.711,2.141-1.164q-2.28.558-.643.2a2.845,2.845,0,0,1,1.442-.091c1.158-.5-.261-.384-1.421-.858l-3.678-1.5c-7.284-2.976-16.8,3.223-18.452,10.476C851.017,552.542,855.678,559.092,863.479,562.279Z"/><path class="cls-1" d="M804.878,451.782c.01-.078.014-.156.024-.234h-.052C790.952,543.5,729.428,622.219,640.268,654c-53.452,19.053-112.253,20.976-167.815,10.667-46.687-8.663-92.308-27.035-127.127-59.78-31.5-29.619-51.614-68.286-54.8-111.481a237.221,237.221,0,0,1,.7-41.858H268.94c-5.3,50.6,5.392,100.944,36.455,142.023,66.386,87.79,194.068,113.287,298.129,93.395,116.74-22.317,206.958-115.46,223.366-232.233a12.176,12.176,0,0,0,.05-1.242C823.628,465.767,803.158,465.317,804.878,451.782Z"/><path class="cls-1" d="M819.878,451.782l.024-.234c.845-8.077-7.557-15-15-15h-.052c-5.945,0-13.479,4.615-14.464,11.013a269.177,269.177,0,0,1-6.964,32.252q-2.13,7.532-4.706,14.927-1.167,3.348-2.425,6.663-.753,1.986-1.539,3.96c-.192.483-2.358,5.653-1.192,2.949A257.085,257.085,0,0,1,741.722,562.8c1.855-2.422-.981,1.224-1.108,1.383q-.876,1.1-1.763,2.18-2.663,3.256-5.435,6.423-5.316,6.072-11.011,11.8a240.362,240.362,0,0,1-23.715,20.984c2.392-1.839-1.327.969-1.47,1.076q-1.422,1.053-2.86,2.087-3.168,2.279-6.406,4.458-7.1,4.776-14.516,9.052-6.535,3.766-13.29,7.132-3.558,1.772-7.172,3.431c-1.32.605-2.65,1.184-3.973,1.781-4.329,1.949,2.633-1.021-1.779.76-49.55,20.006-104.632,24.988-156.378,17.244-25.114-3.758-49.7-9.877-73.3-19.329-19.864-7.958-42.956-21.989-59.17-36.718a190.855,190.855,0,0,1-14.634-14.817c-2.092-2.364-4.11-4.788-6.088-7.247-3.18-3.953,1.485,2.159-1.484-1.944-1.072-1.48-2.153-2.952-3.2-4.453a173.022,173.022,0,0,1-10.208-16.586q-2.4-4.445-4.528-9.027a68.383,68.383,0,0,1-3.026-7.147,162.624,162.624,0,0,1-5.844-18.585q-1.237-4.954-2.162-9.98c-.285-1.555-.532-3.115-.787-4.675a9.031,9.031,0,0,1-.3-2.308,241.2,241.2,0,0,1,.1-48.224c.807-8.08-7.526-15-15-15H268.94c-8.711,0-14.181,6.914-15,15-3.251,32.127-.37,65.378,10.273,95.973a208.5,208.5,0,0,0,49.957,78.888c39.05,39.047,91.349,63.266,145.042,74.215,54.014,11.014,111.517,10.725,165.054-2.926a296.03,296.03,0,0,0,139.172-80.821c37.49-38.915,64.158-88.371,75.021-141.377,1.466-7.152,3.185-14.71,3.481-22.009.3-7.457-5.941-13.783-13.006-14.733A15.071,15.071,0,0,0,812.476,449.5q-.779,2.368.389-.848-1.047,1.6.084,0,1.217-1.515-.071-.17,2.641-1.911,1.209-1.019c-2.873,2.127,2.468-.868-.132.012-2.661.9,3.468-.229.5-.146-2.85.081,3.261.922.639.021q3.413,1.614,1.342.531l1.741,1.407c-1.5-1.427,1.313,2.33,1.587,3.277q-.615-2.307.024,1.3a12.064,12.064,0,0,1,.091-2.081c.671-7.839-7.379-15.341-15-15-8.7.39-14.281,6.6-15,15-1.2,14.017,10.277,24.781,23.715,25.5,12.838.691,24.018-7.792,27.812-19.809l-29.465-3.987c.119-2.924-.084,1.115-.254,2.184q-.335,2.1-.7,4.2-.853,4.877-1.886,9.719-2.049,9.612-4.789,19.058-2.619,9.026-5.858,17.855-1.553,4.227-3.244,8.4-.39.962-.785,1.92c.994-2.422.092-.212-.1.235-.645,1.475-1.292,2.949-1.956,4.416A273.184,273.184,0,0,1,774.434,554.7q-4.936,7.8-10.391,15.265c-.941,1.287-1.9,2.562-2.856,3.838a10.374,10.374,0,0,1-1,1.287c-2.133,2.669-4.283,5.321-6.5,7.923a278.069,278.069,0,0,1-25.722,26.428q-7.129,6.414-14.687,12.327c-1.346,1.055.107-.085.322-.249q-.82.623-1.642,1.242-1.922,1.444-3.867,2.855-3.9,2.823-7.89,5.512a280.112,280.112,0,0,1-32.254,18.724q-4.365,2.16-8.8,4.166c-1.271.575-2.55,1.132-3.826,1.7-.428.189-2.648,1.118-.273.128q-1.29.538-2.587,1.063-8.79,3.559-17.806,6.52a286.183,286.183,0,0,1-37.8,9.582q-4.387.8-8.795,1.492c-1.59.249-3.182.482-4.775.715-.185.027-2.457.343-.748.11,1.689-.23-1.156.145-1.443.181q-9.351,1.17-18.756,1.854a371.593,371.593,0,0,1-38.891.789q-9.625-.307-19.226-1.117-4.985-.42-9.957-.979c-1.422-.159-2.841-.333-4.261-.5-.143-.017-2.489-.31-.842-.1,1.846.236-1.911-.268-2.257-.318a324.521,324.521,0,0,1-74.785-19.861c-.647-.261-4.681-1.961-2.276-.924q-1.939-.837-3.87-1.695-4.493-2.007-8.911-4.171-8.805-4.312-17.275-9.265-8.125-4.76-15.879-10.118c-2.482-1.718-4.913-3.5-7.344-5.29-.089-.066-1.922-1.45-.7-.514,1.35,1.031-.941-.739-1.228-.966q-1.91-1.513-3.787-3.066a219.327,219.327,0,0,1-27.341-26.935q-1.367-1.609-2.7-3.247c-.423-.518-3.081-3.863-1.6-1.949-2.376-3.072-4.635-6.239-6.8-9.464a180.338,180.338,0,0,1-11.8-20.323,131.809,131.809,0,0,1-7.736-18.576,192.888,192.888,0,0,1-5.994-21.447q-1.148-5.249-2.01-10.554c-.636-3.893-.806-5.168-1.262-9.988a220.754,220.754,0,0,1-.955-22.506c.061-7.592.524-15.167,1.288-22.721l-15,15h22.281l-15-15c-2.816,28.2-1.416,57.336,7.465,84.414a191.114,191.114,0,0,0,38.845,66.975c35.79,40.458,87.22,64.185,139.428,74.922,57.672,11.861,119.085,11.338,175.37-7.031,44.605-14.557,85.225-40.6,116.374-75.775a274.406,274.406,0,0,0,65.611-139.517L804.85,466.548h.052l-15-15-.024.234c-.819,7.83,7.484,15.337,15,15C813.705,466.387,819,460.17,819.878,451.782Z"/>
</svg>