<svg 
  xmlns="http://www.w3.org/2000/svg" 
  viewBox="0 0 1080 1080"
  fill="#3c3c3c"
  >
  <path d="M886.286,641.053c-42.859,86.169-101.915,158.713-182.728,211.924-31.562,20.782-64.924,39.26-101.9,48.938-57.425,15.03-111.369,2.227-163.234-23.177-72.367-35.446-128.785-89.253-175.31-154.025-55.012-76.586-90.782-161.17-101.069-255.326-6.739-61.687-1.6-122.31,30.074-177.44,36.175-62.963,91.961-92.05,164.157-88.019,69.193,3.863,127.464,34.855,180.306,77.231,9.438,7.568,14.891,8.164,24.471.21,45.276-37.591,95.538-66.036,154.311-76.136,104.454-17.95,182.259,31.059,212.856,132.865C960.108,444.185,919.783,573.706,886.286,641.053Z"/>
</svg>