<svg 
  xmlns="http://www.w3.org/2000/svg"
  viewBox="0 0 1080 1080"
  fill="#fff"
  >
  <path class="cls-1" d="M545.214,907.336q-132.75.01-265.5-.025c-80.15-.127-128.509-48.515-128.557-128.492q-.1-168.571.013-337.143c.076-75.521,47.379-124.1,122.739-125.573,35.808-.7,71.647-.526,107.46.01,28.962.433,44.207,15,43.519,40-.637,23.14-16.631,36.888-44.344,37.153-35.116.337-70.239-.076-105.356.154-31.48.206-47.517,14.925-47.625,45.866q-.606,172.784.038,345.569c.115,29.212,15.7,44.309,44.592,44.343q272.876.327,545.75.006c28.907-.033,44.634-15.134,44.749-44.212q.683-173.835-.039-347.676c-.131-28.591-16.575-43.569-45.321-43.853-35.818-.355-71.644.144-107.462-.2-28.621-.271-44.839-14.865-44.546-39.142.285-23.625,15.641-37.888,43.492-37.959,42.812-.108,85.823-1.361,128.392,2.175,56.982,4.733,101.158,53.459,101.576,110.577q1.332,182.258.021,364.531c-.479,64.7-53.218,113.329-121.773,113.742C726.429,907.74,635.82,907.328,545.214,907.336Z"/><path class="cls-1" d="M506.435,530.693c0-6.581,0-13.932,0-21.283,0-88.425-.186-176.852.1-265.277.115-35.266,25.938-55.746,53.9-43.221,19.538,8.752,23.559,25.858,23.514,45.355q-.306,131.585-.087,263.172v22.05L589.9,534.8c14.157-15.1,27.889-30.621,42.576-45.182,19.034-18.871,41.395-20.286,57.743-4.688,17.165,16.377,16.04,39.236-3.677,59.184q-54.757,55.4-110.105,110.209c-20.58,20.35-41.894,20.346-62.526-.041Q457.752,598.8,402.3,542.6c-17.984-18.25-18.966-39.87-3.692-56.152,15.616-16.647,38.736-16.149,57.745,1.671,15.338,14.38,30.283,29.18,45.46,43.733C502.066,532.09,503.05,531.567,506.435,530.693Z"/>
</svg>