<svg 
  xmlns="http://www.w3.org/2000/svg" 
  viewBox="0 0 1080 1080"
  fill="#3d3c3e"
  position="absolute"
  width="40px"
  right="10px"
  >
  <path class="cls-1" d="M529.58,217.353l-62.975,1.659L351.5,222.045c-21.039.554-42.161.6-63.179,1.755-21.847,1.2-42.841,5.222-59.5,20.407-16.582,15.113-20.76,37.989-23.056,59.137-3.188,29.368-1.924,59.216-1.981,88.723l-.14,71.606-.216,110.7L203.2,691.161l-.176,89.686-.047,24.312c-.028,14.329,2.29,27.9,8.567,41.028,12.627,26.407,41.9,42.315,70.645,41.672q7.188-.161,14.376-.339l71.187-1.68,107.305-2.532,118.866-2.8,105.872-2.5,68.495-1.616c4.086-.1,8.179-.131,12.264-.29,13.654-.532,27.588-3.955,39.177-11.442,17.091-11.042,31.17-28.929,34.689-49.36,1.715-9.954,1.782-19,1.782-28.916V524.818c0-18.046-15.868-35.335-34.5-34.5-18.692.837-34.5,15.159-34.5,34.5V767.743c0,12.184,1.024,24.895-.353,37.041l1.232-9.172a46.889,46.889,0,0,1-3.209,11.527l3.478-8.241a47.9,47.9,0,0,1-5.335,8.944l5.395-6.982A48.239,48.239,0,0,1,781.1,808.2l6.982-5.395a47.057,47.057,0,0,1-10.148,5.9l8.241-3.477a47.658,47.658,0,0,1-10.347,2.746L785,806.745c-5.521.644-11.163.513-16.711.644l-36.216.854L611.7,811.084l-145.89,3.442-125.346,2.958c-19.577.462-39.156,1.033-58.736,1.386a56.8,56.8,0,0,1-7.364-.3l9.172,1.232a46.787,46.787,0,0,1-11.575-3.208l8.241,3.478a47.928,47.928,0,0,1-8.981-5.357l6.982,5.394a48.243,48.243,0,0,1-7.369-7.346l5.395,6.983a47.111,47.111,0,0,1-5.906-10.2l3.478,8.242a47.527,47.527,0,0,1-2.725-10.395l1.232,9.171c-.673-5.972-.338-12.119-.326-18.117l.071-36.322.232-118.719.266-136.011.2-102.306c.059-29.981-.705-60.076,1.057-90.006.317-5.387.77-10.765,1.484-16.115l-1.232,9.172a77.949,77.949,0,0,1,4.667-18.954l-3.477,8.241a36.8,36.8,0,0,1,4.517-7.9l-5.394,6.983a29.739,29.739,0,0,1,4.842-4.863l-6.983,5.4a33.508,33.508,0,0,1,7.079-4.1l-8.242,3.478a61.2,61.2,0,0,1,15.137-3.82l-9.171,1.233c10.4-1.378,20.97-1.366,31.45-1.642l53.71-1.415L497.445,287.2l32.135-.847c18.025-.475,35.35-15.529,34.5-34.5-.819-18.285-15.173-35.009-34.5-34.5Z"/><path class="cls-1" d="M905.289,263.707c-7.5-26.34-34.675-45.166-53.514-62.856-6.5-6.106-12.864-12.43-19.533-18.343-20.147-17.862-47.289-23.461-71.661-10.945-10.988,5.643-19.852,15.478-28.738,24.1l-94.7,91.883c-68.341,66.306-137.9,131.518-205.124,199.019-1.393,1.4-2.833,2.749-4.249,4.123-6.088,5.906-8.974,12.541-9.522,19.1L364.583,688.248c-6.706,22.3,16.042,48.026,38.528,39.638l123.2-45.955c14.9-5.559,29.974-10.787,44.753-16.693,11.654-4.657,17.957-12.716,26.237-21.67l209.1-226.106L884.9,332.586C902.226,313.851,912.8,290.086,905.289,263.707ZM465.659,570.123l45.824,48.984-68.2,25.44Q454.468,607.335,465.659,570.123ZM845.606,281.608c-.238,1.618-4.558,4.929-5.625,6.083L686.265,453.907,559.589,590.884l-68.433-73.151,284.982-276.5c3.342-3.243,7.973-10.041,12.24-11.876.632-.272-2.424-1.19.461-.44,5.987,1.555,15.185,14.259,19.677,18.477L831.421,268.9c3.214,3.018,11.321,8.116,13.2,12.033C844.921,281.55,845.922,279.468,845.606,281.608Z"/>
</svg>