<svg 
  xmlns="http://www.w3.org/2000/svg" 
  viewBox="0 0 1080 1080"
  fill="#fff"
  >
  <path class="cls-1" d="M296.319,246.039c0-24.823-.5-46.869.126-68.883.776-27.4,15.914-43.7,39.625-44,23.919-.3,39.7,15.677,41,42.809,1.023,21.341.833,42.74,1.362,64.109.037,1.5,1.56,2.963,2.885,5.318H689.158c0-21.884-.285-42.945.067-63.995.517-30.862,15.639-48.323,41.15-48.22s40.171,17.469,40.5,48.459c.219,20.393.041,40.79.041,64.708,24.653,0,47.456-.679,70.205.142,46.313,1.67,68.361,21.37,75.277,67.448a314.016,314.016,0,0,1,2.976,46.015q.342,223.367.177,446.734c0,1.712-.021,3.424-.043,5.135-1.222,97.058-43.9,142.1-141.183,143.5-122.357,1.761-244.755,1.124-367.132.69-44.407-.157-89.313,1-133.091-5.011-71.3-9.784-106.2-47.063-107.127-118.407-2.167-167.7-1.784-335.468.089-503.18.673-60.264,27.036-82.215,86.94-83.339C269.086,245.861,280.17,246.039,296.319,246.039ZM236.986,481.315c-.653,7.463-1.478,12.51-1.48,17.558-.043,105.24-.346,210.481.179,315.718C235.971,872,250.46,889,308.439,889.544q236.1,2.226,472.233,0c58.043-.551,72.535-17.588,72.818-74.93.516-104.381.26-208.767.173-313.15,0-6.444-1.343-12.886-2.153-20.147ZM853.507,411.2c0-21.866.224-41.365-.047-60.857-.556-39.953-.665-39.729-41.821-39.619q-239.969.642-479.936,1c-25.658.043-51.358-1.173-76.944.1-6.242.31-17.067,7.881-17.335,12.6-1.63,28.6-.812,57.348-.812,86.781Z"/><path class="cls-1" d="M501.151,716.884c36.537-50.322,71.182-98.042,105.834-145.757,4.022-5.538,7.855-11.233,12.174-16.53,12.51-15.344,28.113-20.693,45.019-8.847,17.723,12.417,19.371,29.9,7.255,47.182-24.067,34.323-49.06,68-73.664,101.943C577.683,722.587,558,750.6,537.4,777.923c-15.382,20.392-30.136,22.975-50.846,8.766-25.39-17.419-50.285-35.6-74.866-54.147-18.74-14.142-22.473-33.326-10.8-48.715,11.623-15.317,30.427-16.728,50.142-3.108C467.152,691.857,482.835,703.629,501.151,716.884Z"/>
</svg>