<svg 
  xmlns="http://www.w3.org/2000/svg" 
  viewBox="0 0 1080 1080"
  fill="#fff"
  >
  <path class="cls-1" d="M235.537,150.53v766.5c0,10.366-.119,20.741,0,31.107.006.444,0,.889,0,1.333,0,19.616,17.249,38.407,37.5,37.5,20.318-.91,37.5-16.477,37.5-37.5v-766.5c0-10.367.12-20.741,0-31.107,0-.445,0-.889,0-1.334,0-19.615-17.248-38.407-37.5-37.5-20.317.91-37.5,16.477-37.5,37.5Z"/><path class="cls-1" d="M273.07,659.807l66.6,0,153.845,0,186.586-.008,88.277,0,39.458,0c19.8,0,40.544,1.976,58.611-7.732,14.127-7.589,24.81-22.22,28.67-37.682,5.009-20.068-2.008-39.6-15.835-54.311-16.094-17.122-33.347-33.289-49.98-49.89Q778.825,459.791,728.38,409.385c-7.842-7.834-15.721-15.618-23.33-23.678V438.74q50.421-50.208,100.839-100.417,25.261-25.177,50.488-50.39c8.154-8.166,16.9-16.053,24.448-24.785,12.738-14.74,19.363-34.053,14.231-53.428-5.119-19.329-20.286-33.266-38.579-40.038-10.108-3.741-21.156-3.757-31.807-3.768l-38.108-.04-86.237-.093q-93.569-.1-187.136-.21-80.581-.09-161.164-.184c-25.942-.03-51.918-.447-77.859-.09-.376,0-.753,0-1.129,0-20.27-.024-37.5,17.2-37.5,37.5q0,20.958,0,41.915,0,50.059.007,100.117.006,60.519.01,121.039,0,52.511.008,105.02c0,16.906-.309,33.846,0,50.75,0,.235,0,.47,0,.705.044,19.614,17.217,38.409,37.5,37.5,20.321-.91,37.5-16.477,37.5-37.5v-.035c0-19.616-17.248-38.407-37.5-37.5-20.318.91-37.5,16.477-37.5,37.5v.035h75c-.031-13.892,0-27.785,0-41.677q0-50-.008-99.995l-.009-121.032-.009-105.128c0-16.972.417-34,0-50.972-.007-.247,0-.5,0-.742l-37.5,37.5,39.28.045,100.545.116,135.868.155,145.248.162q64.343.07,128.686.138c5.4,0,10.838-.206,16.2.43L828.9,240a37.063,37.063,0,0,1,7.64,2l-8.958-3.78a29.1,29.1,0,0,1,5.159,3.14l-7.589-5.864a29.926,29.926,0,0,1,3.944,3.959l-5.864-7.59a24.214,24.214,0,0,1,2.541,4.416l-3.781-8.958a24.437,24.437,0,0,1,.985,3.522l-1.339-9.969a22.116,22.116,0,0,1,.088,4.859l1.339-9.969a24.971,24.971,0,0,1-1.311,4.91l3.78-8.958a29.742,29.742,0,0,1-3.6,5.984l5.863-7.59c-6.625,7.776-14.429,14.747-21.644,21.977q-11.212,11.235-22.45,22.445-21.673,21.632-43.371,43.239-44.142,43.979-88.31,87.931c-14.654,14.591-13.905,38.3,0,53.033,28.573,30.271,58.795,59.109,88.25,88.524q22.231,22.2,44.468,44.394Q796.03,582.93,807.328,594.2c7.131,7.113,15.228,13.927,21.446,21.858l-5.864-7.59a28.679,28.679,0,0,1,2.849,5.057l-3.78-8.958a25.023,25.023,0,0,1,1.053,4.049l-1.34-9.969a24.043,24.043,0,0,1,.007,4.276l1.34-9.969a26.841,26.841,0,0,1-1.655,5.772l3.781-8.958a29.361,29.361,0,0,1-3.322,5.531l5.864-7.589a27.37,27.37,0,0,1-3.547,3.454l7.59-5.864a27.565,27.565,0,0,1-4.309,2.538l8.958-3.781a30.33,30.33,0,0,1-6.417,1.805l9.969-1.34c-10.5,1.129-21.551.261-32.12.262l-30.257,0-65.581,0-143.944.006-137.518,0-106.415,0c-16.684,0-33.39-.254-50.072,0-.324,0-.649,0-.974,0-19.615,0-38.407,17.248-37.5,37.5C236.48,642.624,252.047,659.807,273.07,659.807Z"/>
</svg>