<svg 
  xmlns="http://www.w3.org/2000/svg" 
  viewBox="0 0 1080 1080"
  fill="#fcfcfc"
  >
  <circle fill="#fcfcfc" class="cls-1" cx="540" cy="545.077" r="379.719"/>
  <path fill="#3c3c3c" class="cls-2" d="M853.5,429.525c-8.28,9.616-9.159,7.515-20.878,2.54.1-.445.2-.89.285-1.346,2.31-12.137,1.591-26.718-10.92-32.7-11.645-5.571-26.565.612-30.8,12.753-3.486,9.985.852,21.159,8.123,30.312a34.686,34.686,0,0,1-20.4,4.216q-2.069-1.929-4.193-3.8c.081-.926.154-1.858.21-2.8,2.826-47.271-24.332-87.6-61.89-114-34.614-24.332-74.654-37.042-113.827-37.126a182.829,182.829,0,0,0-62.029-16.855c-62.737-5.145-124.1,32.61-153.923,87.181a170.712,170.712,0,0,0-11.454,25.918q-1.551.32-3.111.655c-11.648-27.386-9.641-57.385,15.361-79.21,19.738-17.23-9.1-45.874-28.735-28.735-35.568,31.048-41.5,77.956-26.107,118.911-43.715,15.28-84.2,41.537-94.785,85.471-9.96,41.347,6.663,80.312,35.485,107.884-33.639,31.956-34.017,74.835-16,118.033,20.578,49.335,67.258,86,122.326,82.735a143.116,143.116,0,0,0,16.2-1.91c8.855,22.644,24.518,43.737,51.009,44.85,11.9.5,25.581-3.418,35.18-10.674A25.125,25.125,0,0,0,488,808.614a99.1,99.1,0,0,0,34.325,4.84c23.526,19.212,51.448,32.2,81.179,23.9,43.853-12.236,75.833-50.113,94.66-91.745q2.23-.823,4.44-1.692c.031.035.056.07.088.1,10.106,10.892,24.476,19.739,39.375,12.847a34.063,34.063,0,0,0,15.406-14.9c5.957-11.615-11.569-21.907-17.544-10.256-1.463,2.853-2.192,4.136-4.906,5.925-4.223,2.786-8.629.646-12.481-2.58q4.8-2.411,9.485-5.047c57.826-32.632,104.042-97.634,101.808-165.706a165.946,165.946,0,0,0-37.113-99.876,49.187,49.187,0,0,0,20.359-8.278,37.058,37.058,0,0,0,5.125,2.284c16.743,5.864,34.5-1.569,45.666-14.54C876.365,434.03,862.055,419.6,853.5,429.525Zm-39.084-6.533c-3.164-2.8-.043-3.076,0,0ZM534.875,770.68c-3.694-3.807-7.189-7.7-10.447-11.487,10.263,1.443,20.682,2.575,31.185,3.348a100.712,100.712,0,0,1-15.8,6.738C538.186,769.812,536.538,770.274,534.875,770.68ZM329.9,466.066c6.458-7.921,15.085-14.651,24.5-20.264-6.517,9.971-10.169,16.7-10.169,16.7a155.3,155.3,0,0,0-20.623,43.947C319.631,492.288,320.927,477.067,329.9,466.066Zm88.785,252.248q7.176,2.791,14.279,5.243c-35.337,7.2-61.185-21.039-72.414-53.484C378.425,693.5,399.457,710.833,418.682,718.314ZM591.008,328.746c4.341,2.418,8.564,5.044,12.629,7.871-.858-.3-1.723-.588-2.595-.864a93.335,93.335,0,0,0-31.211-4.271A138.916,138.916,0,0,1,591.008,328.746Zm100.341,68.3c-.125-.671-.242-1.345-.375-2.012q1.554,1.367,3.08,2.787C693.153,397.56,692.253,397.3,691.349,397.047ZM474.288,751.413q3.841-2.728,7.55-5.572a15.844,15.844,0,0,0,2.464,3.168,23.424,23.424,0,0,0-3.854,9.534A44.866,44.866,0,0,1,474.288,751.413ZM729.329,404.948c-1.2-1.41-2.4-2.755-3.6-4-13.062-13.618-27.857-27.986-44.871-37.046-1.359-2.866-2.8-5.636-4.35-8.264-1.875-3.186-3.884-6.3-6-9.344q7.094,3.66,13.9,8.056C703.868,366.958,721.04,384.1,729.329,404.948ZM510.94,311.638a168.039,168.039,0,0,0-49.235,45.956,22.111,22.111,0,0,0-2.2,3.773c-3.16.582-6.226,1.171-9.173,1.759a88.991,88.991,0,0,0-28.576,11.663C438.227,341.591,466.288,316.685,510.94,311.638ZM277.418,480.9a55.324,55.324,0,0,1,4.422-7.525c-6.067,29.548,6.08,65.573,27.98,87.985q-2.989,1.575-5.925,3.228C277.825,544.268,261.806,513.243,277.418,480.9Zm10.4,200.836c-10.168-31.7-4.491-51.586,16.349-68.5q5.117,2.65,10.415,4.9a161.6,161.6,0,0,0,4.685,57.06c8.25,30.377,26.36,57.213,50.828,73.444C331.4,748,300.341,720.769,287.821,681.732ZM453.238,789.773c-.521.3-1.067.56-1.614.815l-.234.059c-1.694.429-8.4,1.465-3.181,1.149a16.021,16.021,0,0,1-3.145.128c-.823-.122-1.288-.177-1.511-.188a5.077,5.077,0,0,1-2.732-1.172c-3.762-2.943-7.021-8.786-9.489-14.748q4.092-1.76,8.113-3.7A87.74,87.74,0,0,0,454.2,789.222C453.877,789.406,453.557,789.588,453.238,789.773Zm139.463,8.4a36.377,36.377,0,0,1-17.094-.195,157.242,157.242,0,0,0,43.236-35.506q12.756-1.047,25.352-3.023C631.049,778.135,613.936,793.137,592.7,798.17ZM713.6,693.733a18.837,18.837,0,0,0-1.476-5.52c44.746-38.966,90.385-99.612,66.725-177.374A124.789,124.789,0,0,1,793.2,564.3C795.4,617.228,758.559,667.577,713.6,693.733Z"/><path class="cls-1" d="M641.225,561.241l-23.492-3.747c-4.72-.753-9.533,1.215-10.9,6.188-1.159,4.218,1.435,10.142,6.188,10.9l23.492,3.748c4.72.753,9.533-1.216,10.9-6.189C648.572,567.923,645.978,562,641.225,561.241Z"/><path class="cls-1" d="M482.656,557.494l-23.491,3.747c-4.73.755-7.356,6.652-6.189,10.9,1.384,5.035,6.156,6.945,10.9,6.189l23.491-3.748c4.73-.754,7.356-6.652,6.189-10.9C492.172,558.647,487.4,556.737,482.656,557.494Z"/><path class="cls-1" d="M660.4,498.376c-27.958-10.57-61.425-1.721-80.459,21.332a74.456,74.456,0,0,0-16.39,37.954H538.409a73.557,73.557,0,0,0-46.961-59.286c-27.957-10.57-61.425-1.721-80.458,21.332-19.564,23.7-22.816,57.841-6.714,84.342,15.882,26.139,46.689,39.348,76.591,33.619,30.784-5.9,53.446-32.038,57.525-62.286h25.044a70.71,70.71,0,0,0,9.788,28.667c15.882,26.139,46.689,39.348,76.591,33.619C683.571,631.2,707.573,600.4,708,566.522A73.632,73.632,0,0,0,660.4,498.376ZM485.272,618.117a55.6,55.6,0,0,1-61.751-17.311c-14.346-17.8-15.759-43.418-3.943-62.867,11.706-19.266,35.156-29.869,57.36-25.325a55.574,55.574,0,0,1,44.395,53.908C521.045,589.248,506.966,610.406,485.272,618.117Zm168.948,0a55.6,55.6,0,0,1-61.752-17.311c-14.346-17.8-15.759-43.418-3.942-62.867,11.706-19.266,35.155-29.869,57.359-25.325a55.572,55.572,0,0,1,44.395,53.908C689.993,589.248,675.913,610.406,654.22,618.117Z"/><path class="cls-1" d="M556.784,617.2H545.216c-3.708,0-7.26,3.26-7.089,7.089a7.212,7.212,0,0,0,7.089,7.088h11.568c3.708,0,7.26-3.26,7.089-7.088a7.212,7.212,0,0,0-7.089-7.089Z"/>
</svg>