<svg 
  xmlns="http://www.w3.org/2000/svg" 
  viewBox="0 0 1080 1080"
  fill="#fff"
  >
  <path class="cls-1" d="M333.672,406.209H746.328c24.642,0,48.25-21.669,47.111-47.111-1.144-25.525-20.7-47.111-47.111-47.111H333.672c-24.642,0-48.25,21.669-47.111,47.111,1.144,25.525,20.7,47.111,47.111,47.111Z"/><path class="cls-1" d="M333.672,587.111H746.328c24.642,0,48.25-21.669,47.111-47.111-1.144-25.525-20.7-47.111-47.111-47.111H333.672c-24.642,0-48.25,21.669-47.111,47.111,1.144,25.525,20.7,47.111,47.111,47.111Z"/><path class="cls-1" d="M333.672,768.013H746.328c24.642,0,48.25-21.669,47.111-47.111-1.144-25.525-20.7-47.111-47.111-47.111H333.672c-24.642,0-48.25,21.669-47.111,47.111,1.144,25.525,20.7,47.111,47.111,47.111Z"/>
</svg>