<svg
  xmlns="http://www.w3.org/2000/svg" 
  viewBox="0 0 1080 1080"
  fill="#3c3c3c"
  >
  <path d="M539.293,776.3c-131.213.021-235.884-104.68-235.688-235.758.2-133.649,103.6-236.719,237.687-236.924,130.584-.2,235.206,105.11,235.024,236.568C776.134,672.5,671.953,776.279,539.293,776.3Z"/><path d="M807.5,890.444c-3.718.036-5.438-3.009-7.626-5.19-31.625-31.521-63.087-63.208-94.892-94.546-5.818-5.733-6.343-9.478-.2-15.455,23.508-22.886,46.614-46.188,69.708-69.495,5.863-5.917,10.335-6.82,16.871-.149,31.25,31.9,62.918,63.385,94.6,94.858,4.631,4.6,6.4,8.132.932,13.528-24.316,23.983-48.365,48.238-72.53,72.375C812.431,888.29,810.555,890.387,807.5,890.444Z"/><path d="M270.72,890.424a76.119,76.119,0,0,1-6.48-5.324c-23.222-23.141-46.251-46.478-69.646-69.442-5.752-5.647-6.456-9.559-.306-15.623q47.665-47,94.593-94.748c5.991-6.1,10.342-5.685,15.861-.131q35.121,35.348,70.442,70.5c4.881,4.865,6.255,8.688.312,14.522-32.18,31.589-63.923,63.623-95.849,95.469C277.457,887.827,275.659,890.807,270.72,890.424Z"/><path d="M890.43,274.19c-1.375,1.571-3.3,4.036-5.489,6.232-31.215,31.286-62.672,62.336-93.548,93.953-6.666,6.826-11.057,5.649-16.818-.156q-34.613-34.869-69.481-69.483c-5.439-5.4-6.359-9.364-.056-15.534q47.853-46.84,94.74-94.664c5.965-6.063,9.927-5.849,15.646-.029,23.3,23.714,46.923,47.118,70.4,70.662C888.014,267.368,891.016,269.142,890.43,274.19Z"/><path d="M380.327,295.793c.04,3.967-2.351,5.625-4.219,7.5-23.461,23.545-47.092,46.924-70.379,70.64-6.512,6.632-11.12,6.682-17.851-.195q-45.9-46.9-92.727-92.882c-6.04-5.961-7.324-10.03-.524-16.62,23.554-22.829,46.656-46.128,69.682-69.492,5.49-5.57,9.36-6.819,15.6-.466,31.3,31.868,63.045,63.292,94.6,94.905C376.725,291.4,378.667,293.9,380.327,295.793Z"/><path d="M901.41,600.1c-21.889,0-43.782-.238-65.665.122-8.248.136-12.631-1.656-12.513-11.215.406-32.828.322-65.667.044-98.5-.072-8.569,3.611-10.753,11.588-10.7,44.233.278,88.47.365,132.7-.046,9.279-.087,11.449,3.2,11.324,11.921-.463,32.372-.523,64.759.021,97.128.157,9.36-3.189,11.569-11.836,11.374-21.878-.492-43.775-.163-65.664-.163Z"/><path d="M600.108,179.391c.013,21.476-.348,42.962.19,64.425.216,8.6-2.233,12.746-11.245,12.7q-49.348-.253-98.7-.063c-8.2.022-10.77-3.563-10.7-11.774q.554-66.481.009-132.969c-.077-8.792,3.27-10.666,11.22-10.585,32.9.335,65.8.4,98.7-.032,8.653-.114,10.843,2.989,10.676,11.131C599.795,134.6,600.1,157,600.108,179.391Z"/><path d="M600.127,901.919c-.009,21.884-.27,43.772.13,65.648.143,7.792-1.411,11.467-10.373,11.341-33.274-.468-66.561-.359-99.839-.05-7.537.07-10.385-2.079-10.332-10.006q.441-67.014-.066-134.033c-.076-8.591,3.46-11.4,11.133-11.389q49.238.041,98.475.006c7.724,0,11.273,2.915,11.065,11.47C599.777,857.232,600.137,879.58,600.127,901.919Z"/><path d="M252.049,480.756c6.527,1.762,4.382,7.223,4.4,11.3.165,31.887-.221,63.779.243,95.659.139,9.589-3.093,12.608-12.58,12.523-44.183-.4-88.372-.322-132.557-.089-7.372.039-10.559-1.795-10.472-9.873.359-33.706.095-67.418.222-101.127.014-3.564-1.9-9.007,5.231-8.464-1.893,7.542,4.141,4.349,6.63,4.361q64.384.293,128.769.1C245.82,485.134,250.535,486.47,252.049,480.756Z"/><path d="M252.049,480.756c-1.514,5.714-6.229,4.378-10.11,4.384q-64.384.1-128.769-.1c-2.489-.012-8.523,3.181-6.63-4.361C155.044,479.605,203.547,479.443,252.049,480.756Z"/>
</svg>