<svg 
  xmlns="http://www.w3.org/2000/svg" 
  viewBox="0 0 1080 1080"
  fill="current"
  >
  <path d="M542.324,784.463c-131.213.021-235.884-104.681-235.688-235.758.2-133.649,103.6-236.72,237.687-236.924,130.585-.2,235.206,105.109,235.025,236.568C779.165,680.661,674.984,784.441,542.324,784.463Z"/><path d="M877.694,303.606,836.97,344.164a60.585,60.585,0,0,1-85.3.207h0a60.585,60.585,0,0,1-.128-86.142l40.8-40.482a60.531,60.531,0,0,1,85.616.348h0A60.531,60.531,0,0,1,877.694,303.606Z"/><path d="M215.605,303.606l40.723,40.558a60.586,60.586,0,0,0,85.3.207h0a60.585,60.585,0,0,0,.128-86.142l-40.8-40.482a60.531,60.531,0,0,0-85.616.348h0A60.531,60.531,0,0,0,215.605,303.606Z"/><path d="M543.431,252.406h0a60.313,60.313,0,0,1-60.744-60.314l0-49.66a60.306,60.306,0,0,1,60.563-60.3h0a60.306,60.306,0,0,1,60.05,60.289l.011,49.659A60.313,60.313,0,0,1,543.431,252.406Z"/><path d="M543.431,1001.869h0a60.312,60.312,0,0,1-60.744-60.314l0-49.66a60.306,60.306,0,0,1,60.563-60.3h0a60.306,60.306,0,0,1,60.05,60.289l.011,49.66A60.313,60.313,0,0,1,543.431,1001.869Z"/><path d="M877.694,793.6,836.97,753.039a60.585,60.585,0,0,0-85.3-.207h0a60.586,60.586,0,0,0-.128,86.143l40.8,40.481a60.531,60.531,0,0,0,85.616-.348h0A60.531,60.531,0,0,0,877.694,793.6Z"/><path d="M215.605,793.6l40.723-40.558a60.587,60.587,0,0,1,85.3-.207h0a60.586,60.586,0,0,1,.128,86.143l-40.8,40.481a60.531,60.531,0,0,1-85.616-.348h0A60.531,60.531,0,0,1,215.605,793.6Z"/><path d="M832.594,542.431h0a60.313,60.313,0,0,1,60.314-60.744l49.66,0a60.306,60.306,0,0,1,60.3,60.563h0a60.306,60.306,0,0,1-60.289,60.05l-49.659.011A60.313,60.313,0,0,1,832.594,542.431Z"/><path d="M83.131,542.431h0a60.312,60.312,0,0,1,60.314-60.744l49.66,0a60.306,60.306,0,0,1,60.3,60.563h0a60.306,60.306,0,0,1-60.289,60.05l-49.66.011A60.313,60.313,0,0,1,83.131,542.431Z"/>
</svg>