<svg id="Layer_14" data-name="Layer 14" xmlns="http://www.w3.org/2000/svg" viewBox="0 0 1080 1080"><defs><style>.cls-1{fill:#3d3c3e;}</style></defs><title>check</title><path class="cls-1" d="M435.658,487.588,435.4,622.555c-.034,17.049,12.2,30.8,29.79,30.578,7.542-.1,15.086-.357,22.627-.534l88.341-2.085,36.4-.859c10.51-.248,20.4.155,29.187-7.126,9.668-8.01,10.106-18.947,10.106-30.2V460.673a41.471,41.471,0,0,0-1.109-10.981c-3.409-12.655-15.558-20.537-28.251-20.594-21.031-.094-42.158,1.175-63.179,1.76l-77.835,2.168-4.485.125c-7.836.218-15.37,6.743-15,15,.356,7.94,6.6,15.234,15,15l135.747-3.781c2.9-.081,5.808-.181,8.712-.243.417-.009.839-.006,1.255-.035,3.241-.222.324.288-.049-.145l1.228.372A3.444,3.444,0,0,1,621.6,458c2.812,2.031-.532-1.328.44.344q.787,1.41-.226-.676.61,2.559.037-.081c.052,5.035,0,10.074,0,15.109v81.957c0,21.415-.962,43.078,0,64.476.024.541-.039,1.091,0,1.632.07.968.4-2.725.115-.567l-.159.633q1.128-2.355-.114-.107,1.606-2.016-.16-.185a3.363,3.363,0,0,1,2.2-1.327c-2.715,1.373,1.292.4-.57.2a22.086,22.086,0,0,0-2.793.066l-26.891.634-86.876,2.05-33.041.78c-2.675.063-5.352.151-8.028.189-.381.006-.766.007-1.147.027-.054,0-1.287-.012-1.344-.017,4.648.376-2.912-.73,1.514.173l1.019.873q-1.753-1.832-.091.2-1.23-2.244-.07.143-.606-2.557-.023.1c-.072-44.1.172-88.2.258-132.3l.009-4.743c.016-7.847-6.91-15.362-15-15-8.14.364-14.983,6.59-15,15Z"/><path class="cls-1" d="M506.567,544.319l20.279,28.749c6.649,9.427,19.327,9.822,25.9,0l32.642-48.742c4.509-6.734,1.308-16.611-5.381-20.523-7.367-4.309-16-1.369-20.523,5.381l-32.642,48.743h25.9l-20.279-28.749c-4.663-6.611-13.107-9.719-20.523-5.382-6.538,3.825-10.074,13.87-5.381,20.523Z"/></svg>