<svg xmlns="http://www.w3.org/2000/svg" viewBox="0 0 1080 1080"><defs><style>.cls-1{fill:#3d3c3e;}</style></defs><title>icon_2</title><g id="Layer_22" data-name="Layer 22"><path class="cls-1" d="M610.139,512.505l-.1,59.689c-.009,5.49,1.471,10.728,6.731,13.549,3.618,1.94,7.708,1.456,11.635,1.363l36.821-.868c8.481-.2,24.048,2.187,29.32-6.262,2.3-3.694,2.09-7.5,2.09-11.606V515.7c0-3.537.335-7.247-1.2-10.541-2.729-5.836-8.209-7.568-14.136-7.363l-38.9,1.347-17.178.594c-8.225.285-13.928,4.046-15.077,12.765-.531,4.022,3.826,7.5,7.5,7.5,4.493,0,6.968-3.466,7.5-7.5-.486,3.687-4.171,1.98-.913,2.27a40.273,40.273,0,0,0,4.783-.166l15.283-.529,32.673-1.131c.862-.03,6.136.473,6.733-.233-.261.308-1.448-2.929-2.061-2.135-.126.164.041.739,0,.932a21.886,21.886,0,0,0,0,4.19V563.86c0,2.264-.882,6.619,0,8.744.616,1.484,3.161-1.3,2.159-1.805-.6-.3-2.347.056-2.985.071l-13.3.314-34.281.809c-2.613.061-7.1-.715-9.579.226-.077.029-.663-.065-.726.017-.442.58,1.552,2.772,2.108,2.224.262-.258,0-2.118,0-2.479l.1-59.476C625.155,502.852,610.155,502.838,610.139,512.505Z"/><path class="cls-1" d="M394.731,512.505l-.1,59.689c-.009,5.49,1.471,10.728,6.731,13.549,3.618,1.94,7.708,1.456,11.635,1.363l36.822-.868c8.48-.2,24.048,2.187,29.32-6.262,2.305-3.694,2.09-7.5,2.09-11.606V515.7c0-3.537.335-7.247-1.205-10.541-2.729-5.836-8.209-7.568-14.136-7.363l-38.9,1.347-17.178.594c-8.224.285-13.928,4.046-15.077,12.765-.53,4.022,3.827,7.5,7.5,7.5,4.493,0,6.968-3.466,7.5-7.5-.486,3.687-4.17,1.98-.913,2.27a40.282,40.282,0,0,0,4.784-.166l15.283-.529,32.672-1.131c.863-.03,6.136.473,6.734-.233-.261.308-1.449-2.929-2.061-2.135-.127.164.04.739,0,.932a21.8,21.8,0,0,0,0,4.19V563.86c0,2.264-.883,6.619,0,8.744.615,1.484,3.161-1.3,2.159-1.805-.6-.3-2.347.056-2.985.071l-13.3.314-34.281.809c-2.613.061-7.1-.715-9.578.226-.078.029-.664-.065-.726.017-.443.58,1.552,2.772,2.107,2.224.263-.258,0-2.118,0-2.479l.1-59.476C409.747,502.852,394.747,502.838,394.731,512.505Z"/><path class="cls-1" d="M404.056,403.576l63.262-2.491c13.469-.53,13.537-21.533,0-21l-63.262,2.491c-13.468.53-13.537,21.533,0,21Z"/><path class="cls-1" d="M427.429,391.628v70.4c0,13.512,21,13.535,21,0v-70.4c0-13.513-21-13.535-21,0Z"/><path class="cls-1" d="M542.961,378.843a46.221,46.221,0,0,0-33.307,19.29c-13.6,19.1-11.971,50.685,6.446,66.153,17.607,14.789,44.89,14.392,61.435-1.991,17.6-17.426,18.093-48.09,3.335-67.432-10.464-13.714-28.233-19.428-44.985-16.659-5.6.926-8.723,7.861-7.334,12.917,1.634,5.942,7.3,8.262,12.917,7.333,1.2-.2-3.337.213-2.01.269.561.023,1.157-.134,1.722-.154,2.155-.078,4.267-.053,6.421.073,2.785.162-1.2-.451,1.776.264,1.242.3,2.486.552,3.712.923.714.216,1.416.459,2.12.708,2.729.967-1.111-.595.486.216a35.1,35.1,0,0,1,4.65,2.732c-1.605-1.153,1.068.955,1.112,1,.532.5,1.049,1.014,1.545,1.546a14.037,14.037,0,0,1,2.58,3.51,35.608,35.608,0,0,1,4.541,13.251A29.818,29.818,0,0,1,566.17,443.1a23.183,23.183,0,0,1-16.061,10.718,24.058,24.058,0,0,1-17.318-3.219c-5.227-3.141-8.693-7.993-10.28-15.015-1.792-7.926-.24-17.6,3.268-23.746a13.2,13.2,0,0,1,2.238-3.332,40.072,40.072,0,0,1,3.681-3.61c2.2-1.884-1.691,1.049.661-.461.695-.446,1.382-.9,2.1-1.317.843-.491,5.045-2.325,2.2-1.248a43.39,43.39,0,0,1,6.049-1.892,8.871,8.871,0,0,0,2.1-.393c-.512.6-3.361.388-1.848.257,5.65-.491,10.5-4.475,10.5-10.5,0-5.3-4.818-10.994-10.5-10.5Z"/><path class="cls-1" d="M650.167,610.267a46.224,46.224,0,0,0-33.307,19.29c-13.6,19.1-11.971,50.686,6.445,66.154,17.607,14.788,44.891,14.391,61.436-1.992,17.6-17.425,18.092-48.09,3.334-67.432-10.463-13.713-28.232-19.428-44.984-16.658-5.6.925-8.723,7.86-7.334,12.916,1.633,5.942,7.3,8.262,12.916,7.334,1.2-.2-3.336.212-2.009.268.561.024,1.157-.134,1.722-.154,2.155-.078,4.267-.053,6.42.073,2.785.163-1.2-.451,1.777.264,1.242.3,2.486.553,3.711.923.715.216,1.417.459,2.12.708,2.729.967-1.111-.6.487.216a35,35,0,0,1,4.65,2.733c-1.605-1.154,1.067.954,1.112,1,.532.5,1.049,1.013,1.545,1.545a14.059,14.059,0,0,1,2.579,3.51,35.589,35.589,0,0,1,4.541,13.252,29.82,29.82,0,0,1-3.952,20.313,23.188,23.188,0,0,1-16.061,10.718A24.058,24.058,0,0,1,640,682.024c-5.227-3.141-8.694-7.993-10.281-15.015-1.791-7.925-.24-17.6,3.269-23.745a13.192,13.192,0,0,1,2.237-3.332,39.965,39.965,0,0,1,3.682-3.611c2.2-1.883-1.691,1.049.661-.461.695-.446,1.381-.9,2.1-1.317.842-.49,5.045-2.324,2.2-1.248a43.372,43.372,0,0,1,6.048-1.891,8.92,8.92,0,0,0,2.1-.394c-.512.605-3.361.389-1.848.257,5.65-.49,10.5-4.474,10.5-10.5,0-5.3-4.818-10.993-10.5-10.5Z"/><path class="cls-1" d="M506.656,619.95v76.031c0,5.923,4.822,10.164,10.5,10.5,20.388,1.205,45.688-4.065,59.8-19.788,12.183-13.577,15.592-34.608,7.988-51.279-6.462-14.165-21.482-21.779-36.136-24.558a104.487,104.487,0,0,0-31.649-1.406c-5.629.683-10.5,4.337-10.5,10.5,0,5.144,4.832,11.188,10.5,10.5a97.952,97.952,0,0,1,20.535-.115c.683.063,4.872.618,2.155.207,1.413.214,2.823.447,4.224.73a71.119,71.119,0,0,1,9.246,2.559c.364.126,3,1.288.72.251.524.238,1.063.468,1.569.74,1.267.681,2.536,1.336,3.748,2.114.718.461,1.43.941,2.107,1.461-.329-.253-1.522-1.331-.143-.028.62.586,1.223,1.189,1.841,1.775.386.365,1.968,2.378.567.5a33.848,33.848,0,0,1,2.312,3.73c1.38,2.452-.369-1.213.225.416.27.742.522,1.487.738,2.248.224.792.393,1.592.568,2.395.406,1.858-.157-2.527.137.8a47.9,47.9,0,0,1,.1,6.839c.013-.246-.3,3.286-.116,1.8.18-1.429-.343,1.811-.307,1.641-.332,1.591-.8,3.111-1.289,4.659-.878,2.8.581-1.095-.152.474-.316.677-.644,1.345-1,2s-.725,1.27-1.117,1.887c-.278.437-2.161,2.915-.619,1.016a35.043,35.043,0,0,1-2.858,3.109c-.5.488-3.724,3.088-1.708,1.6a53.656,53.656,0,0,1-7.861,4.667c-.491.248-1.007.466-1.509.689,2.4-1.064-.138.037-.554.182-1.288.451-2.566.914-3.872,1.314a79.791,79.791,0,0,1-8.433,2.074c-1.338.256-2.684.458-4.028.677-1.569.254,2.7-.272.338-.048-.672.064-1.343.155-2.015.223q-3.5.351-7.018.467c-2.173.071-4.361.106-6.533-.022l10.5,10.5V619.95C527.656,606.437,506.656,606.415,506.656,619.95Z"/><path class="cls-1" d="M610.869,406.272c-.034,17.395-.994,35.036-.1,52.4.379,7.4,5.6,12.694,13.061,12.91,2.866.083,5.773-.136,8.638-.2l34.873-.823c7.247-.171,19.346,1.6,25.366-3.377,6.743-5.58,4.663-17.591,4.663-25.4V406.272c0-9.41,1.453-23.013-11.7-24.114-9.235-.773-18.964.4-28.212.663l-28.979.807c-9.632.268-9.672,15.269,0,15l51.243-1.427c1-.028,2.683.247,3.615-.1.188-.07.741.1.892-.025.783-.671-2.392-1.81-1.862-2.3-.605.562,0,5.127,0,5.88V446.33c0,2.809-.827,7.157,0,9.872.062.206-.165,1.114,0,1.259-.288-.254,2.725-1.7,2.159-2.308-.137-.146-1.1.059-1.306.031-3.243-.438-7,.165-10.263.242l-32.252.761-12.982.307c-.783.018-2.65-.293-3.339.079-.141.075-.551-.094-.662.015-.274.27,2.2,2.106,2.043,2.247.95-.87.016-7.864.018-9.116l.035-17.634.05-25.813c.019-9.652-14.981-9.667-15,0Z"/><path class="cls-1" d="M394.731,642.78c-.034,17.395-.994,35.035-.1,52.4.379,7.4,5.6,12.7,13.061,12.91,2.866.083,5.773-.136,8.638-.2l34.873-.822c7.247-.171,19.346,1.6,25.366-3.378,6.743-5.58,4.663-17.59,4.663-25.395V642.779c0-9.409,1.453-23.013-11.7-24.113-9.235-.774-18.964.4-28.212.663l-28.979.807c-9.632.268-9.672,15.269,0,15l51.243-1.428c1-.027,2.683.248,3.615-.1.188-.07.741.1.892-.025.783-.671-2.392-1.811-1.862-2.3-.605.562,0,5.126,0,5.88v45.677c0,2.809-.827,7.157,0,9.873.062.206-.165,1.114,0,1.259-.288-.255,2.725-1.7,2.159-2.308-.137-.146-1.1.058-1.306.031-3.243-.438-7,.165-10.263.242l-32.252.761L411.586,693c-.783.019-2.65-.292-3.339.079-.141.076-.551-.094-.662.016-.274.269,2.2,2.105,2.043,2.247.95-.87.016-7.865.018-9.117l.035-17.633.05-25.813c.019-9.653-14.981-9.667-15,0Z"/><path class="cls-1" d="M422.71,543.2l8.591,12.18c2.66,3.771,7.731,3.929,10.362,0l13.83-20.651c4.309-6.435-6.081-12.449-10.362-6.057L431.3,549.324h10.362l-8.592-12.181c-4.417-6.261-14.826-.273-10.361,6.057Z"/><path class="cls-1" d="M636.945,543.2l8.592,12.18c2.659,3.771,7.731,3.929,10.361,0l13.83-20.651c4.309-6.435-6.081-12.449-10.362-6.057l-13.829,20.652H655.9l-8.592-12.181c-4.416-6.261-14.826-.273-10.361,6.057Z"/><path class="cls-1" d="M637.945,427.481l8.592,12.181c2.659,3.77,7.731,3.928,10.361,0l13.83-20.652c4.309-6.434-6.081-12.448-10.362-6.057l-13.829,20.652H656.9l-8.592-12.181c-4.416-6.261-14.826-.273-10.361,6.057Z"/><path class="cls-1" d="M422.537,663.51l8.592,12.18c2.66,3.771,7.731,3.929,10.362,0l13.83-20.651c4.309-6.435-6.082-12.449-10.362-6.057l-13.83,20.652h10.362L432.9,657.453c-4.417-6.262-14.827-.273-10.362,6.057Z"/><path class="cls-1" d="M533.79,554.2l24.521-.449c15.425-.282,15.475-24.282,0-24l-24.521.449c-15.425.282-15.475,24.283,0,24Z"/></g></svg>